<svg width="24" height="24" viewBox="0 0 24 24" fill="none" xmlns="http://www.w3.org/2000/svg">
<path d="M0 0H24V24H0V0Z" fill="white" fill-opacity="0.01"/>
<path d="M15.3025 9.34448C15.7166 9.34455 16.0524 9.68039 16.0525 10.0945C16.0525 11.1691 15.6257 12.1998 14.866 12.9597C14.1061 13.7196 13.0753 14.1471 12.0007 14.1472C10.926 14.1472 9.89448 13.7197 9.13452 12.9597C8.37476 12.1998 7.948 11.1691 7.948 10.0945C7.9481 9.68035 8.28385 9.34448 8.698 9.34448C9.11209 9.34455 9.4479 9.68039 9.448 10.0945C9.448 10.7714 9.71741 11.4205 10.196 11.8992C10.6747 12.3777 11.3239 12.6472 12.0007 12.6472C12.6775 12.6471 13.3269 12.3777 13.8054 11.8992C14.2839 11.4206 14.5525 10.7712 14.5525 10.0945C14.5526 9.68041 14.8884 9.34457 15.3025 9.34448Z" fill="#291207"/>
<path fill-rule="evenodd" clip-rule="evenodd" d="M17.0417 2.74487C17.2442 2.76876 17.4296 2.87476 17.5535 3.03979L20.031 6.34253C20.0381 6.35201 20.0429 6.36302 20.0496 6.3728C20.0591 6.38687 20.0683 6.40104 20.0769 6.41577C20.0904 6.43893 20.1022 6.46268 20.113 6.48706C20.1201 6.50289 20.1275 6.51852 20.1335 6.53491C20.1432 6.56141 20.1504 6.58853 20.157 6.61597C20.1605 6.63059 20.1651 6.64497 20.1677 6.65991C20.1755 6.7036 20.1804 6.74794 20.1804 6.79272V18.3503C20.1804 18.9872 19.9276 19.5983 19.4773 20.0486C19.027 20.4988 18.4158 20.7517 17.7791 20.7517H6.22144C5.58463 20.7517 4.97349 20.4989 4.52319 20.0486C4.07289 19.5983 3.82007 18.9872 3.82007 18.3503V6.79272C3.82007 6.72397 3.83204 6.65774 3.84937 6.59448C3.85508 6.57378 3.86045 6.5531 3.86792 6.53296C3.87607 6.51091 3.88516 6.48952 3.89526 6.46851C3.90462 6.44906 3.91549 6.4305 3.92651 6.41187C3.93789 6.39266 3.94868 6.37327 3.96167 6.35522C3.96467 6.35105 3.96737 6.34665 3.97046 6.34253L6.44702 3.03979L6.50366 2.97241C6.64427 2.82484 6.84027 2.74004 7.04663 2.73999H16.9539L17.0417 2.74487ZM5.32007 18.3503C5.32007 18.5893 5.41474 18.819 5.58374 18.988C5.75274 19.157 5.98245 19.2517 6.22144 19.2517H17.7791C18.018 19.2517 18.2478 19.157 18.4167 18.988C18.5857 18.819 18.6804 18.5893 18.6804 18.3503V7.54272H5.32007V18.3503ZM6.06909 6.04272H17.9314L16.5789 4.23999H7.42261L6.06909 6.04272Z" fill="#291207"/>
</svg>
