<svg width="21" height="21" viewBox="0 0 21 21" fill="none" xmlns="http://www.w3.org/2000/svg">
    <g clip-path="url(#clip0_15528_11866)">
    <path d="M0.5 0.670166H20.5V20.6701H0.5V0.670166Z" fill="white" fill-opacity="0.01"></path>
    <path fill-rule="evenodd" clip-rule="evenodd" d="M13 6.29516C14.0355 6.29516 14.875 7.13461 14.875 8.17016C14.875 9.2057 14.0355 10.0452 13 10.0452C11.9645 10.0452 11.125 9.2057 11.125 8.17016C11.125 7.13461 11.9645 6.29516 13 6.29516ZM13 7.54516C12.6548 7.54516 12.375 7.82499 12.375 8.17016C12.375 8.51533 12.6548 8.79516 13 8.79516C13.3451 8.79516 13.625 8.51533 13.625 8.17016C13.625 7.82499 13.3451 7.54516 13 7.54516Z" fill="#291207"></path>
    <path fill-rule="evenodd" clip-rule="evenodd" d="M18.625 1.92017C18.7907 1.92017 18.9497 1.98607 19.0669 2.10327C19.1841 2.22048 19.25 2.3794 19.25 2.54517C19.25 6.75888 17.2633 10.5083 14.1784 12.9089C14.2242 13.198 14.25 13.4939 14.25 13.7951C14.25 16.9017 11.7316 19.4201 8.62499 19.4201C8.27981 19.4201 7.99999 19.1403 7.99999 18.7951V15.3511C7.99245 15.3457 7.98453 15.3407 7.97721 15.3349C7.18391 14.7058 6.46513 13.987 5.83609 13.1937C5.83007 13.1861 5.82465 13.178 5.81901 13.1701H2.375C2.02982 13.1701 1.75 12.8903 1.75 12.5451C1.75 9.43856 4.26839 6.92016 7.37499 6.92016C7.67599 6.92016 7.97161 6.94524 8.26041 6.99096C10.6609 3.90609 14.4114 1.92034 18.625 1.92017ZM12.9975 13.7284C11.8532 14.4332 10.5921 14.9663 9.24999 15.2942V18.1246C11.3701 17.8212 13 15.9991 13 13.7951C13 13.7729 12.9979 13.7506 12.9975 13.7284ZM17.9813 3.18807C14.4268 3.37806 11.2872 5.13006 9.23697 7.77302L9.03026 8.04727C8.04809 9.39161 7.34248 10.9496 6.99495 12.6379C7.4595 13.1959 7.97427 13.7106 8.53222 14.1752C10.2207 13.8276 11.7786 13.1222 13.1229 12.1399L13.3971 11.934C16.0404 9.88341 17.7916 6.74312 17.9813 3.18807ZM7.37499 8.17016C5.17101 8.17016 3.34892 9.80006 3.04557 11.9202H5.87597C6.2039 10.5779 6.73692 9.31628 7.44172 8.17178C7.41952 8.17145 7.39728 8.17016 7.37499 8.17016Z" fill="#291207"></path>
    <path d="M4.13606 14.0368C4.41274 13.8305 4.80451 13.8871 5.0109 14.1638C5.21724 14.4404 5.16052 14.8322 4.88395 15.0386C4.11879 15.6094 3.625 16.5194 3.625 17.5451C4.65069 17.5451 5.56072 17.0514 6.1315 16.2862C6.3379 16.0096 6.7297 15.9529 7.00634 16.1592C7.28302 16.3656 7.33969 16.7574 7.13329 17.0341C6.3367 18.1018 5.06182 18.7951 3.625 18.7951C3.39542 18.7951 3.16953 18.7774 2.94873 18.7431C2.67988 18.7012 2.46886 18.4903 2.42708 18.2214C2.39278 18.0007 2.375 17.7748 2.375 17.5451C2.375 16.1083 3.0684 14.8334 4.13606 14.0368Z" fill="#291207"></path>
    </g>
    <defs>
    <clipPath id="clip0_15528_11866">
    <rect width="20" height="20" fill="white" transform="translate(0.5 0.670166)"></rect>
    </clipPath>
    </defs>
    </svg>