<svg width="21" height="21" viewBox="0 0 21 21" fill="none" xmlns="http://www.w3.org/2000/svg">
    <g clip-path="url(#clip0_15528_11845)">
    <path d="M0.500031 0.670166H20.5V20.6701H0.500031V0.670166Z" fill="white" fill-opacity="0.01"></path>
    <path d="M11.4125 14.3202V5.19521C11.4125 4.69125 11.004 4.28271 10.5 4.28271H3.20004C2.69608 4.28271 2.28754 4.69125 2.28754 5.19521V14.3202C2.28754 14.8242 2.69608 15.2327 3.20004 15.2327H4.11253M11.4125 14.3202C11.4125 14.8242 11.004 15.2327 10.5 15.2327H7.76253M11.4125 14.3202L11.4125 7.02021C11.4125 6.51625 11.8211 6.10771 12.325 6.10771H14.6845C14.9266 6.10771 15.1587 6.20385 15.3298 6.37498L18.4452 9.49044C18.6164 9.66157 18.7125 9.89367 18.7125 10.1357V14.3202C18.7125 14.8242 18.304 15.2327 17.8 15.2327H16.8875M11.4125 14.3202C11.4125 14.8242 11.8211 15.2327 12.325 15.2327H13.2375M4.11253 15.2327C4.11253 16.2406 4.92961 17.0577 5.93753 17.0577C6.94545 17.0577 7.76253 16.2406 7.76253 15.2327M4.11253 15.2327C4.11253 14.2248 4.92961 13.4077 5.93753 13.4077C6.94545 13.4077 7.76253 14.2248 7.76253 15.2327M13.2375 15.2327C13.2375 16.2406 14.0546 17.0577 15.0625 17.0577C16.0704 17.0577 16.8875 16.2406 16.8875 15.2327M13.2375 15.2327C13.2375 14.2248 14.0546 13.4077 15.0625 13.4077C16.0704 13.4077 16.8875 14.2248 16.8875 15.2327" stroke="#291207" stroke-width="1.1"></path>
    </g>
    <defs>
    <clipPath id="clip0_15528_11845">
    <rect width="20" height="20" fill="white" transform="translate(0.500031 0.670166)"></rect>
    </clipPath>
    </defs>
    </svg>