<svg width="48" height="28" viewBox="0 0 48 28" fill="none" xmlns="http://www.w3.org/2000/svg">
<rect x="0.5" y="0.5" width="47" height="27" rx="2.5" fill="white"/>
<rect x="0.5" y="0.5" width="47" height="27" rx="2.5" stroke="#E0E0E0"/>
<path d="M13.5684 9.22957C13.957 8.74357 14.2206 8.09102 14.1511 7.42419C13.5823 7.45248 12.8882 7.79944 12.4864 8.28582C12.1255 8.70233 11.8062 9.3822 11.8894 10.0211C12.5279 10.0765 13.1658 9.70193 13.5684 9.22957Z" fill="black"/>
<path d="M14.1438 10.1459C13.2165 10.0906 12.4281 10.6721 11.9853 10.6721C11.5423 10.6721 10.8642 10.1737 10.1308 10.1871C9.17622 10.2011 8.29049 10.7409 7.80608 11.5993C6.80975 13.3165 7.54315 15.8638 8.51204 17.2624C8.98255 17.9543 9.5496 18.7162 10.2968 18.6888C11.0027 18.6611 11.2794 18.2317 12.1375 18.2317C12.995 18.2317 13.2443 18.6888 13.9916 18.675C14.7665 18.6611 15.251 17.9827 15.7215 17.2901C16.2613 16.5013 16.4823 15.7397 16.4962 15.6979C16.4823 15.684 15.0018 15.1161 14.9881 13.4131C14.9741 11.9872 16.1504 11.309 16.2058 11.2669C15.5415 10.2845 14.5036 10.1737 14.1438 10.1459Z" fill="black"/>
<path d="M22.2176 8.21607C24.2329 8.21607 25.6363 9.60527 25.6363 11.6278C25.6363 13.6576 24.2041 15.0541 22.1671 15.0541H19.9357V18.6026H18.3235V8.21606L22.2176 8.21607ZM19.9357 13.7008H21.7855C23.1892 13.7008 23.988 12.9451 23.988 11.6351C23.988 10.3251 23.1892 9.57653 21.7927 9.57653H19.9357V13.7008Z" fill="black"/>
<path d="M26.0575 16.4505C26.0575 15.126 27.0724 14.3127 28.872 14.2119L30.9448 14.0896V13.5066C30.9448 12.6644 30.3762 12.1606 29.4262 12.1606C28.5263 12.1606 27.9648 12.5923 27.8282 13.269H26.3599C26.4462 11.9014 27.6122 10.8937 29.4837 10.8937C31.3191 10.8937 32.4923 11.8654 32.4923 13.3841V18.6026H31.0023V17.3574H30.9665C30.5275 18.1996 29.5701 18.7321 28.5768 18.7321C27.0941 18.7321 26.0575 17.8108 26.0575 16.4505ZM30.9448 15.7667V15.1693L29.0805 15.2844C28.152 15.3492 27.6266 15.7595 27.6266 16.4073C27.6266 17.0694 28.1736 17.5013 29.0086 17.5013C30.0954 17.5013 30.9448 16.7527 30.9448 15.7667Z" fill="black"/>
<path d="M33.899 21.3883V20.1286C34.014 20.1573 34.273 20.1573 34.4027 20.1573C35.1224 20.1573 35.5112 19.8551 35.7486 19.0777C35.7486 19.0633 35.8855 18.6171 35.8855 18.6099L33.1504 11.0305H34.8345L36.7493 17.1919H36.7779L38.6928 11.0305H40.3338L37.4977 18.9985C36.8501 20.834 36.1015 21.4242 34.5324 21.4242C34.4027 21.4242 34.014 21.4098 33.899 21.3883Z" fill="black"/>
</svg>
