<svg width="48" height="28" viewBox="0 0 48 28" fill="none" xmlns="http://www.w3.org/2000/svg">
<rect x="0.5" y="0.5" width="47" height="27" rx="2.5" fill="white"/>
<rect x="0.5" y="0.5" width="47" height="27" rx="2.5" stroke="#E0E0E0"/>
<g clip-path="url(#clip0_15505_479525)">
<path d="M23.0099 14.3426V18.5276H21.6599V8.17761H25.1699C26.0249 8.17761 26.8349 8.49261 27.4649 9.07761C28.0949 9.61761 28.4099 10.4276 28.4099 11.2826C28.4099 12.1376 28.0949 12.9026 27.4649 13.4876C26.8349 14.0726 26.0699 14.3876 25.1699 14.3876L23.0099 14.3426ZM23.0099 9.43761V13.0376H25.2599C25.7549 13.0376 26.2499 12.8576 26.5649 12.4976C27.2849 11.8226 27.2849 10.6976 26.6099 10.0226L26.5649 9.97761C26.2049 9.61761 25.7549 9.39261 25.2599 9.43761H23.0099Z" fill="#5F6368"/>
<path d="M31.5149 11.2375C32.5049 11.2375 33.2699 11.5075 33.8549 12.0475C34.4399 12.5875 34.7099 13.3075 34.7099 14.2075V18.5275H33.4499V17.5375H33.4049C32.8649 18.3475 32.0999 18.7525 31.1999 18.7525C30.4349 18.7525 29.7599 18.5275 29.2199 18.0775C28.7249 17.6275 28.4099 16.9975 28.4099 16.3225C28.4099 15.6025 28.6799 15.0175 29.2199 14.5675C29.7599 14.1175 30.5249 13.9375 31.4249 13.9375C32.2349 13.9375 32.8649 14.0725 33.3599 14.3875V14.0725C33.3599 13.6225 33.1799 13.1725 32.8199 12.9025C32.4599 12.5875 32.0099 12.4075 31.5149 12.4075C30.7499 12.4075 30.1649 12.7225 29.7599 13.3525L28.5899 12.6325C29.3099 11.6875 30.2549 11.2375 31.5149 11.2375ZM29.8049 16.3675C29.8049 16.7275 29.9849 17.0425 30.2549 17.2225C30.5699 17.4475 30.9299 17.5825 31.2899 17.5825C31.8299 17.5825 32.3699 17.3575 32.7749 16.9525C33.2249 16.5475 33.4499 16.0525 33.4499 15.5125C33.0449 15.1975 32.4599 15.0175 31.6949 15.0175C31.1549 15.0175 30.7049 15.1525 30.3449 15.4225C29.9849 15.6475 29.8049 15.9625 29.8049 16.3675Z" fill="#5F6368"/>
<path d="M41.9998 11.4626L37.5448 21.6776H36.1948L37.8598 18.1226L34.9348 11.5076H36.3748L38.4898 16.5926H38.5348L40.6048 11.5076H41.9998V11.4626Z" fill="#5F6368"/>
<path d="M17.6552 13.4425C17.6552 13.0375 17.6102 12.6325 17.5652 12.2275H11.9402V14.5225H15.1352C15.0002 15.2425 14.5952 15.9175 13.9652 16.3225V17.8075H15.9002C17.0252 16.7725 17.6552 15.2425 17.6552 13.4425Z" fill="#4285F4"/>
<path d="M11.9399 19.2475C13.5599 19.2475 14.9099 18.7075 15.8999 17.8075L13.9649 16.3225C13.4249 16.6825 12.7499 16.9075 11.9399 16.9075C10.4099 16.9075 9.05988 15.8725 8.60988 14.4325H6.62988V15.9625C7.66488 17.9875 9.68988 19.2475 11.9399 19.2475Z" fill="#34A853"/>
<path d="M8.61002 14.4324C8.34002 13.7124 8.34002 12.9024 8.61002 12.1374V10.6074H6.63002C5.77502 12.2724 5.77502 14.2524 6.63002 15.9624L8.61002 14.4324Z" fill="#FBBC04"/>
<path d="M11.9398 9.70747C12.7948 9.70747 13.6048 10.0225 14.2348 10.6075L15.9448 8.89747C14.8648 7.90747 13.4248 7.32247 11.9848 7.36747C9.7348 7.36747 7.6648 8.62747 6.6748 10.6525L8.6548 12.1825C9.0598 10.7425 10.4098 9.70747 11.9398 9.70747Z" fill="#EA4335"/>
</g>
<defs>
<clipPath id="clip0_15505_479525">
<rect width="36" height="17.145" fill="white" transform="translate(6 5.47754)"/>
</clipPath>
</defs>
</svg>
