<svg width="48" height="28" viewBox="0 0 48 28" fill="none" xmlns="http://www.w3.org/2000/svg">
<rect x="0.5" y="0.5" width="47" height="27" rx="2.5" fill="white"/>
<rect x="0.5" y="0.5" width="47" height="27" rx="2.5" stroke="#E0E0E0"/>
<path d="M37.2361 24.3293C37.2658 24.3293 37.2953 24.3352 37.323 24.3459C37.3502 24.3568 37.3749 24.373 37.3962 24.3928C37.417 24.4128 37.434 24.4362 37.446 24.4622C37.4702 24.517 37.4702 24.5792 37.446 24.634C37.434 24.6601 37.417 24.6843 37.3962 24.7043C37.375 24.724 37.35 24.7394 37.323 24.7502C37.2947 24.7625 37.2641 24.7688 37.2332 24.7688C37.1417 24.7681 37.0587 24.7156 37.0203 24.634C36.9964 24.5792 36.9964 24.517 37.0203 24.4622C37.0323 24.4362 37.0494 24.4128 37.0701 24.3928C37.0914 24.373 37.1162 24.3568 37.1433 24.3459C37.1728 24.3344 37.2044 24.3286 37.2361 24.3293ZM37.1648 24.4016C37.1437 24.4101 37.1243 24.4229 37.1082 24.4387C37.0468 24.5045 37.0468 24.6054 37.1082 24.6711C37.1244 24.6871 37.1436 24.6996 37.1648 24.7083C37.1868 24.7176 37.2103 24.722 37.2341 24.7219C37.2574 24.7219 37.2802 24.7174 37.3015 24.7083C37.3219 24.6993 37.3406 24.6868 37.3562 24.6711C37.4174 24.6054 37.4175 24.5044 37.3562 24.4387C37.3407 24.4231 37.3218 24.4105 37.3015 24.4016C37.28 24.3924 37.2566 24.3879 37.2332 24.3879C37.2097 24.3881 37.1864 24.3926 37.1648 24.4016ZM21.7458 22.4309H22.5544L22.5593 22.8723H21.7546V23.886C21.7547 24.1088 21.8447 24.2569 22.0808 24.2571C22.2343 24.2521 22.3845 24.2093 22.5164 24.1321L22.6589 24.5461C22.4746 24.6592 22.261 24.7187 22.0437 24.718C21.4618 24.718 21.2576 24.4108 21.2576 23.8948V22.8723H20.7996V22.4309H21.2488V21.7561H21.7458V22.4309ZM19.4841 22.3752C19.8078 22.3644 20.1276 22.4451 20.406 22.6077L20.1882 22.9973C19.9724 22.8754 19.7282 22.8098 19.4792 22.8069C19.2096 22.8069 19.0486 22.9189 19.0486 23.0676C19.0487 23.2162 19.2186 23.2585 19.4314 23.2864L19.6687 23.3186C20.1605 23.3884 20.4587 23.5608 20.4587 23.9836C20.4585 24.4065 20.0792 24.7083 19.4265 24.7083C19.0773 24.7176 18.7345 24.6166 18.448 24.4202L18.6843 24.0442C18.9013 24.2022 19.1663 24.2843 19.4363 24.2766C19.7722 24.2766 19.9519 24.1781 19.9519 24.0061C19.9516 23.8809 19.8238 23.8108 19.5544 23.7737L19.3181 23.7415C18.8119 23.6717 18.5379 23.4487 18.5378 23.0862C18.5378 22.6446 18.9116 22.3752 19.4841 22.3752ZM16.7771 22.3752C17.0532 22.3652 17.3175 22.4861 17.4871 22.7004V22.4309H17.9792V24.6438H17.4871V24.3743C17.3175 24.5885 17.0531 24.7095 16.7771 24.6995C16.1239 24.6994 15.5946 24.1791 15.5945 23.5374C15.5945 22.8955 16.1239 22.3753 16.7771 22.3752ZM24.0916 22.3792C24.7254 22.3792 25.1656 22.8442 25.1658 23.5413V23.7278H23.4861C23.5246 24.0591 23.8247 24.3003 24.1628 24.2717C24.4021 24.2683 24.6334 24.1863 24.8201 24.0393L25.0574 24.3967C24.7933 24.6083 24.4582 24.7166 24.1179 24.6995C23.4647 24.7084 22.9278 24.1948 22.9187 23.553C22.9098 22.9113 23.4316 22.3842 24.0847 22.3752L24.0916 22.3792ZM28.5623 22.3655C28.8188 22.3763 29.0659 22.4691 29.2654 22.6311L29.0291 23.0208C28.859 22.8933 28.6511 22.8239 28.4373 22.8215C28.0602 22.8516 27.7693 23.1608 27.7693 23.5325C27.7693 23.9042 28.0602 24.2133 28.4373 24.2434C28.6511 24.2411 28.859 24.1716 29.0291 24.0442L29.2654 24.4338C29.0659 24.5958 28.8188 24.6887 28.5623 24.6995H28.3318C28.0535 24.6863 27.7876 24.5737 27.5867 24.3801C27.3572 24.159 27.2331 23.8529 27.2449 23.5374V23.5276C27.2331 23.212 27.3572 22.9059 27.5867 22.6848C27.7876 22.4913 28.0535 22.3787 28.3318 22.3655H28.5623ZM30.6521 22.3752C30.9281 22.3653 31.1926 22.4862 31.3621 22.7004V22.4309H31.8533V24.6438H31.3621V24.3743C31.1926 24.5885 30.9281 24.7094 30.6521 24.6995C29.9989 24.6995 29.4696 24.1791 29.4695 23.5374C29.4695 22.8955 29.9988 22.3752 30.6521 22.3752ZM36.4119 24.6438H35.9392V24.3743C35.7697 24.5885 35.5052 24.7095 35.2292 24.6995C34.5761 24.6994 34.0467 24.1791 34.0466 23.5374C34.0466 22.8956 34.5761 22.3754 35.2292 22.3752C35.5053 22.3652 35.7697 22.4861 35.9392 22.7004V21.5383H36.4119V24.6438ZM14.405 22.3752C14.6144 22.3853 14.8137 22.4715 14.9626 22.6194C15.1328 22.7884 15.2205 23.0209 15.2039 23.2581V24.6526L14.7078 24.6624V23.426C14.7078 23.0495 14.5466 22.8401 14.2107 22.8401C14.0532 22.8326 13.9006 22.8942 13.7937 23.0081C13.6868 23.122 13.6365 23.2772 13.657 23.4309V24.6624H13.1599V23.426C13.1599 23.0497 12.9949 22.8403 12.6687 22.8401C12.5109 22.8317 12.3568 22.8929 12.2498 23.0071C12.1427 23.1213 12.0936 23.2771 12.115 23.4309V24.6526H11.6179V22.4309H12.1101V22.7053C12.2557 22.4878 12.5075 22.3621 12.7722 22.3752C13.0763 22.3624 13.3636 22.5144 13.5203 22.7708C13.6706 22.5396 13.9221 22.3941 14.196 22.3752H14.405ZM26.741 22.3665C26.8603 22.367 26.9792 22.3865 27.0916 22.426L26.9402 22.8909C26.8424 22.8526 26.7378 22.8338 26.6326 22.8352C26.3203 22.8352 26.1589 23.0402 26.1589 23.4075V24.6536H25.6677V22.4309H26.155V22.7004C26.2781 22.4931 26.5065 22.3682 26.7507 22.3752L26.741 22.3665ZM33.5759 22.3665C33.6951 22.367 33.8133 22.3866 33.9255 22.426L33.7742 22.8909C33.6765 22.8527 33.5717 22.8338 33.4666 22.8352C33.1545 22.8354 32.9939 23.0404 32.9939 23.4075V24.6536H32.5017V22.4309H32.989V22.7004C33.112 22.4931 33.3406 22.3684 33.5847 22.3752L33.5759 22.3665ZM37.2478 24.4456C37.2697 24.4446 37.2918 24.4511 37.3093 24.4641C37.3239 24.476 37.3311 24.4944 37.3298 24.5129C37.3305 24.5285 37.3245 24.5439 37.3132 24.5549C37.2996 24.567 37.2827 24.575 37.2644 24.5764L37.3328 24.6526H37.2781L37.2146 24.5764H37.1931V24.6526H37.1482V24.4485L37.2478 24.4456ZM37.1951 24.5413H37.2761V24.4993C37.267 24.4966 37.2569 24.4967 37.2478 24.4993L37.1951 24.4856V24.5413ZM16.8562 22.9104C16.4846 22.8967 16.1701 23.1775 16.1482 23.5422H16.1433C16.1308 23.7286 16.1986 23.912 16.3298 24.0471C16.4611 24.182 16.6438 24.2568 16.8337 24.2532C17.2056 24.2513 17.5084 23.9574 17.5144 23.592C17.5203 23.2269 17.2277 22.9242 16.8562 22.9104ZM35.3005 22.9104C34.9291 22.897 34.6144 23.1776 34.5925 23.5422C34.5801 23.7277 34.647 23.9102 34.7771 24.0452C34.9074 24.1802 35.0897 24.2555 35.2791 24.2532C35.6509 24.2512 35.9527 23.9573 35.9587 23.592C35.9646 23.2268 35.6721 22.9241 35.3005 22.9104ZM30.7312 22.9055C30.3596 22.8918 30.0451 23.1726 30.0232 23.5374C30.0107 23.723 30.0775 23.9053 30.2078 24.0403C30.338 24.1752 30.5195 24.2506 30.7087 24.2483C31.0806 24.2464 31.3824 23.9525 31.3884 23.5872C31.3942 23.2221 31.1026 22.9194 30.7312 22.9055ZM24.0759 22.8079C23.7598 22.7973 23.4922 23.0366 23.4744 23.3469H24.657C24.6539 23.2008 24.5925 23.0613 24.4851 22.9602C24.3777 22.8591 24.2334 22.8047 24.0847 22.8079H24.0759Z" fill="black"/>
<path d="M20.3225 4.96783H27.5469V17.4948H20.3225V4.96783Z" fill="#FF5F00"/>
<path d="M20.7812 11.2326C20.7785 8.78777 21.9414 6.47756 23.9347 4.96805C20.5495 2.40115 15.6882 2.77504 12.7673 5.82697C9.8463 8.87889 9.8463 13.5842 12.7673 16.6361C15.6882 19.688 20.5495 20.0619 23.9347 17.495C21.942 15.986 20.7792 13.6767 20.7812 11.2326V11.2326Z" fill="#EB001B"/>
<path d="M37.2938 11.2325C37.2937 14.2825 35.4887 17.0648 32.6454 18.3977C29.802 19.7305 26.4195 19.38 23.9344 17.4949C25.9262 15.9845 27.0892 13.6756 27.0892 11.2314C27.0892 8.78713 25.9262 6.47819 23.9344 4.96788C26.4195 3.08277 29.802 2.7322 32.6454 4.06506C35.4887 5.39791 37.2937 8.1802 37.2938 11.2303V11.2325Z" fill="#F79E1B"/>
<path d="M36.76 15.8573L36.8567 16.2665L36.9524 15.8573H37.0354V16.4305L36.9866 16.4344V16.0009L36.8977 16.3729H36.8352L36.7463 16.0009V16.4305H36.6868V15.8573H36.76ZM36.6125 15.8573V15.9559H36.5051V16.4305H36.4573V15.9559H36.3401V15.8573H36.6125Z" fill="#F79E1B"/>
</svg>
