<svg width="48" height="28" viewBox="0 0 48 28" fill="none" xmlns="http://www.w3.org/2000/svg">
<rect x="0.5" y="0.5" width="47" height="27" rx="2.5" fill="white"/>
<rect x="0.5" y="0.5" width="47" height="27" rx="2.5" stroke="#E0E0E0"/>
<path d="M30.4039 9.33419C30.4529 6.78356 28.3482 4.82556 25.4543 4.82556H19.4694C19.3299 4.82561 19.195 4.87544 19.0889 4.9661C18.9829 5.05676 18.9127 5.18229 18.891 5.3201L16.4925 20.3058C16.4818 20.3737 16.4859 20.4431 16.5046 20.5093C16.5233 20.5754 16.556 20.6367 16.6007 20.689C16.6453 20.7413 16.7008 20.7833 16.7632 20.812C16.8256 20.8408 16.8936 20.8557 16.9623 20.8558H20.5084L19.9539 24.3263C19.9431 24.3942 19.9472 24.4637 19.9659 24.5299C19.9846 24.5961 20.0175 24.6574 20.0622 24.7097C20.1069 24.762 20.1624 24.8039 20.2249 24.8327C20.2873 24.8614 20.3553 24.8763 20.4241 24.8763H23.3125C23.4523 24.8763 23.5765 24.8259 23.6824 24.7356C23.7883 24.6448 23.8057 24.5197 23.8272 24.3817L24.6751 19.3928C24.6967 19.2553 24.7668 19.0765 24.8731 18.9858C24.979 18.895 25.0716 18.8455 25.2109 18.8451H26.9792C29.8131 18.8451 32.2179 16.8311 32.6575 14.0294C32.9682 12.0402 32.1153 10.2311 30.4039 9.33419Z" fill="#001C64"/>
<path d="M21.2757 15.3292L20.3924 20.93L19.8379 24.4427C19.8271 24.5106 19.8313 24.5801 19.85 24.6463C19.8687 24.7125 19.9015 24.7738 19.9462 24.8261C19.9909 24.8784 20.0464 24.9203 20.1089 24.9491C20.1714 24.9778 20.2393 24.9927 20.3081 24.9927H23.3652C23.5046 24.9925 23.6394 24.9426 23.7454 24.852C23.8513 24.7613 23.9214 24.6359 23.9432 24.4981L24.7489 19.3923C24.7706 19.2546 24.8408 19.1292 24.9467 19.0386C25.0527 18.948 25.1875 18.8983 25.3269 18.8982H27.1267C29.9606 18.8982 32.365 16.8311 32.8046 14.0293C33.1162 12.0406 32.1152 10.2316 30.4038 9.33417C30.3992 9.54592 30.3809 9.75721 30.3484 9.96667C29.9088 12.768 27.5039 14.8355 24.6701 14.8355H21.8536C21.7143 14.8356 21.5795 14.8853 21.4736 14.9758C21.3677 15.0663 21.2975 15.1916 21.2757 15.3292Z" fill="#0070E0"/>
<path d="M20.392 20.93H16.8353C16.7665 20.93 16.6986 20.9152 16.6361 20.8864C16.5737 20.8577 16.5182 20.8157 16.4735 20.7634C16.4288 20.7111 16.3961 20.6497 16.3774 20.5835C16.3588 20.5174 16.3547 20.4479 16.3655 20.38L18.7635 5.17157C18.7853 5.03381 18.8555 4.90833 18.9615 4.81775C19.0676 4.72716 19.2025 4.67742 19.3419 4.67749H25.4547C28.3482 4.67749 30.4529 6.78353 30.4038 9.33416C29.6838 8.95649 28.8377 8.74061 27.9105 8.74061H22.8143C22.6749 8.74075 22.5402 8.79057 22.4342 8.88113C22.3283 8.97169 22.2581 9.09705 22.2363 9.2347L21.2761 15.3292L20.392 20.93Z" fill="#003087"/>
</svg>
