<svg width="48" height="28" viewBox="0 0 48 28" fill="none" xmlns="http://www.w3.org/2000/svg">
<rect x="0.5" y="0.5" width="47" height="27" rx="2.5" fill="white"/>
<rect x="0.5" y="0.5" width="47" height="27" rx="2.5" stroke="#E0E0E0"/>
<path fill-rule="evenodd" clip-rule="evenodd" d="M19.1163 7.71777L17.0907 20.2458H20.3283L22.3549 7.71777H19.1163Z" fill="#135191"/>
<mask id="mask0_15505_479517" style="mask-type:luminance" maskUnits="userSpaceOnUse" x="22" y="7" width="11" height="14">
<path fill-rule="evenodd" clip-rule="evenodd" d="M22.3571 7.5H32.0746V20.4318H22.3571V7.5Z" fill="white"/>
</mask>
<g mask="url(#mask0_15505_479517)">
<path fill-rule="evenodd" clip-rule="evenodd" d="M32.0746 8.02582C31.4326 7.77182 30.4274 7.49982 29.1718 7.49982C25.9721 7.49982 23.7179 9.19882 23.6989 11.6338C23.6809 13.4348 25.3083 14.4388 26.5364 15.0378C27.7967 15.6518 28.2206 16.0438 28.2149 16.5918C28.2064 17.4318 27.2078 17.8158 26.2775 17.8158C24.9811 17.8158 24.2926 17.6258 23.2286 17.1578L22.8113 16.9588L22.3571 19.7638C23.1138 20.1128 24.5126 20.4168 25.9645 20.4318C29.369 20.4318 31.5786 18.7518 31.6042 16.1518C31.6156 14.7268 30.7536 13.6418 28.8844 12.7478C27.7531 12.1678 27.0598 11.7808 27.0665 11.1948C27.0665 10.6738 27.6535 10.1168 28.9214 10.1168C29.9807 10.0998 30.7479 10.3428 31.3454 10.5968L31.6355 10.7408L32.0746 8.02582" fill="#135191"/>
</g>
<path fill-rule="evenodd" clip-rule="evenodd" d="M36.3859 15.8044C36.6533 15.0824 37.6766 12.3024 37.6766 12.3024C37.6567 12.3354 37.9421 11.5764 38.1052 11.1064L38.3243 12.1864C38.3243 12.1864 38.9445 15.1774 39.0744 15.8044H36.3859ZM40.3791 7.72949H37.8764C37.1016 7.72949 36.5212 7.95249 36.1808 8.76849L31.3708 20.2495H34.7716C34.7716 20.2495 35.3282 18.7065 35.4534 18.3675C35.8252 18.3675 39.1292 18.3725 39.6014 18.3725C39.6982 18.8115 39.995 20.2495 39.995 20.2495H43.0003L40.3791 7.72949V7.72949Z" fill="#135191"/>
<path fill-rule="evenodd" clip-rule="evenodd" d="M14.3752 7.72656L11.2049 16.2706L10.8664 14.5336C10.2765 12.5326 8.4377 10.3636 6.38171 9.27856L9.28077 20.2356L12.7071 20.2316L17.8053 7.72656H14.3752" fill="#135191"/>
<path fill-rule="evenodd" clip-rule="evenodd" d="M8.26325 7.71869H3.04078L3 7.97969C7.06266 9.01669 9.75118 11.5227 10.8664 14.5337L9.73126 8.77669C9.53496 7.98269 8.96691 7.74669 8.26325 7.71869" fill="#FAB10B"/>
</svg>
